<svg xmlns="http://www.w3.org/2000/svg" viewBox="0 0 48 48" width="70" height="70"> <defs><style>.cls-1{fill:#ffab40}</style></defs>
<g id="Layer_2" data-name="Layer 2"><g id="layer_1-2" data-name="layer 1">
<path class="cls-1" d="M34.51 42.87A11 11 0 0 1 29 34h2a9 9 0 0 0 4.49 7.16zM13.49 42.87l-1-1.74A9.09 9.09 0 0 0 17 34h2a11 11 0 0 1-5.51 8.87z"/>
<path class="cls-1" d="M24 37c-7.53 0-13-6.8-13-16.16C11 12.3 16 7 24 7s13 5.3 13 13.84C37 30.2 31.53 37 24 37zm0-28c-7 0-11 4.32-11 11.84C13 29 17.63 35 24 35s11-6 11-14.16C35 13.32 31 9 24 9z"/>
<path class="cls-1" d="M18.53 20.19a20.44 20.44 0 0 1-6.9-1.26l.74-1.86c.06 0 6.38 2.47 11.18 0 4.37-2.22 10.89-2.13 13.16.19l-1.42 1.4c-1.52-1.55-7-1.73-10.84.19a13 13 0 0 1-5.92 1.34z"/>
<path class="cls-1" d="M35 48H13A13 13 0 0 1 0 35V13A13 13 0 0 1 13 0h22a13 13 0 0 1 13 13v22a13 13 0 0 1-13 13zM13 2A11 11 0 0 0 2 13v22a11 11 0 0 0 11 11h22a11 11 0 0 0 11-11V13A11 11 0 0 0 35 2z"/></g></g>
</svg>