<svg xmlns="http://www.w3.org/2000/svg" xml:space="preserve" width="45" height="45" style="shape-rendering:geometricPrecision;text-rendering:geometricPrecision;image-rendering:optimizeQuality;fill-rule:evenodd;clip-rule:evenodd" viewBox="0 0 6.827 6.827"><defs>
<style>.fil0{fill:none}.fil2,.fil3{fill:#1C46C4}.fil2{fill-rule:nonzero}</style>
</defs>
<g id="Layer_x0020_1"><g id="_488776888">
<path id="_488776552" class="fil0" d="M0 0h6.827v6.827H0z"/><path id="_488776984" class="fil0" d="M.853.853h5.12v5.12H.853z"/></g><path d="M1.91 1.75h2.961a.114.114 0 0 1 .113.128l-.269 3.978-.113-.008.113.008a.114.114 0 0 1-.113.106H2.18a.114.114 0 0 1-.114-.112L1.797 1.87a.114.114 0 0 1 .113-.121z" style="fill:#ffab40;fill-rule:nonzero"/><path class="fil2" d="M1.767 1.353a.114.114 0 0 0 .011.226l3.282-.176a.114.114 0 1 0-.011-.227l-3.282.177z"/><path class="fil2" d="m2.965 1.3-.014-.274-.006-.113.113-.006.684-.037.113-.006.006.114.015.274-.227.011-.008-.16-.457.025.008.16z"/><path class="fil3" d="M4.188 2.319a.114.114 0 0 0-.228 0v3.074a.114.114 0 0 0 .228 0V2.319zM3.504 2.319a.114.114 0 0 0-.227 0v3.074a.114.114 0 0 0 .227 0V2.319zM2.821 2.319a.114.114 0 1 0-.227 0v3.074a.114.114 0 0 0 .227 0V2.319z"/></g></svg>